<svg id="svg" version="1.1" xmlns="http://www.w3.org/2000/svg" xmlns:xlink="http://www.w3.org/1999/xlink" width="400" height="346.6666666666667" viewBox="0, 0, 400,346.6666666666667"><g id="svgg"><path id="path0" d="M80.902 1.417 C 81.251 2.013,108.139 48.593,140.652 104.928 C 173.165 161.263,199.892 207.313,200.045 207.261 C 200.198 207.209,227.162 160.667,259.965 103.833 L 319.607 0.500 282.887 0.415 C 258.371 0.359,246.130 0.442,246.055 0.667 C 245.994 0.853,245.783 0.905,245.587 0.784 C 245.391 0.663,245.322 0.711,245.433 0.892 C 245.654 1.250,240.881 9.770,240.611 9.499 C 240.519 9.408,240.444 9.534,240.444 9.780 C 240.444 10.531,227.188 33.280,226.865 33.082 C 226.699 32.980,226.655 33.045,226.766 33.225 C 227.040 33.668,222.183 42.065,221.835 41.749 C 221.684 41.612,221.652 41.662,221.764 41.860 C 222.034 42.334,217.191 50.739,216.835 50.416 C 216.684 50.279,216.652 50.329,216.764 50.526 C 217.034 51.001,212.191 59.406,211.835 59.083 C 211.684 58.946,211.653 58.997,211.766 59.196 C 211.924 59.474,200.842 79.260,200.119 79.990 C 199.857 80.255,199.364 79.221,199.575 78.849 C 199.684 78.657,199.650 78.612,199.498 78.749 C 199.142 79.073,194.299 70.667,194.569 70.193 C 194.681 69.995,194.650 69.946,194.498 70.083 C 194.142 70.406,189.299 62.001,189.569 61.526 C 189.681 61.329,189.650 61.278,189.500 61.415 C 189.146 61.736,185.637 55.660,185.905 55.189 C 186.016 54.993,185.983 54.946,185.832 55.083 C 185.475 55.406,180.633 47.001,180.902 46.526 C 181.015 46.329,180.983 46.279,180.832 46.416 C 180.475 46.739,175.633 38.334,175.902 37.860 C 176.015 37.662,175.983 37.612,175.832 37.749 C 175.475 38.073,170.633 29.667,170.902 29.193 C 171.015 28.995,170.983 28.946,170.832 29.083 C 170.475 29.406,165.633 21.001,165.902 20.526 C 166.015 20.329,165.983 20.279,165.832 20.416 C 165.484 20.732,160.626 12.335,160.900 11.892 C 161.012 11.711,160.967 11.645,160.802 11.745 C 160.636 11.845,159.000 9.319,157.167 6.132 L 153.833 0.337 117.050 0.335 L 80.267 0.333 80.902 1.417 " stroke="none" fill="#34445c" fill-rule="evenodd"></path><path id="path1" d="M0.000 0.209 C 0.000 0.456,1.269 2.730,4.349 8.000 C 5.581 10.108,6.888 12.358,7.254 13.000 C 8.625 15.407,10.261 18.224,11.280 19.931 C 11.859 20.902,12.333 21.768,12.333 21.855 C 12.333 21.943,12.683 22.574,13.111 23.257 C 14.104 24.844,16.004 28.070,17.083 30.000 C 18.133 31.880,29.573 51.736,32.832 57.339 C 34.168 59.634,35.677 62.259,36.186 63.173 C 36.695 64.086,37.987 66.299,39.056 68.091 C 40.125 69.883,41.000 71.424,41.000 71.515 C 41.000 71.606,41.350 72.240,41.778 72.924 C 42.770 74.511,44.671 77.736,45.750 79.667 C 46.800 81.546,58.239 101.403,61.499 107.006 C 62.834 109.301,64.343 111.926,64.851 112.839 C 65.360 113.753,66.651 115.976,67.721 117.781 C 68.791 119.586,69.667 121.126,69.667 121.205 C 69.667 121.283,70.017 121.907,70.444 122.590 C 71.435 124.175,73.335 127.400,74.416 129.333 C 75.414 131.118,86.712 150.727,90.168 156.673 C 91.502 158.967,93.009 161.592,93.518 162.506 C 94.026 163.419,95.318 165.643,96.388 167.448 C 97.458 169.252,98.333 170.793,98.333 170.871 C 98.333 170.950,98.683 171.574,99.111 172.257 C 100.115 173.862,102.016 177.091,103.081 179.000 C 103.541 179.825,104.441 181.400,105.080 182.500 C 105.719 183.600,108.833 189.000,111.999 194.500 C 123.952 215.264,125.458 217.866,126.219 219.077 C 126.648 219.761,127.000 220.401,127.000 220.501 C 127.000 220.600,127.350 221.240,127.778 221.924 C 128.782 223.529,130.683 226.758,131.748 228.667 C 132.208 229.492,133.107 231.067,133.747 232.167 C 134.386 233.267,137.499 238.667,140.666 244.167 C 152.619 264.931,154.124 267.532,154.885 268.743 C 155.315 269.427,155.667 270.068,155.667 270.167 C 155.667 270.266,156.020 270.907,156.451 271.590 C 157.771 273.682,160.667 278.666,160.667 278.845 C 160.667 278.938,161.017 279.574,161.444 280.257 C 162.437 281.844,164.337 285.070,165.416 287.000 C 166.467 288.880,177.906 308.736,181.166 314.339 C 182.501 316.634,184.010 319.259,184.519 320.173 C 185.028 321.086,186.320 323.299,187.389 325.091 C 188.458 326.883,189.333 328.424,189.333 328.515 C 189.333 328.606,189.686 329.240,190.116 329.924 C 190.903 331.173,192.944 334.652,194.389 337.207 C 197.365 342.466,199.862 346.660,200.019 346.663 C 200.165 346.666,203.396 341.188,206.208 336.168 C 206.414 335.801,207.326 334.225,208.234 332.667 C 209.143 331.108,210.270 329.158,210.739 328.333 C 211.209 327.508,212.334 325.558,213.239 324.000 C 214.145 322.442,215.269 320.492,215.737 319.667 C 216.205 318.842,217.806 316.086,219.294 313.544 C 220.782 311.001,222.000 308.879,222.000 308.828 C 222.000 308.776,223.125 306.834,224.500 304.511 C 225.875 302.188,227.000 300.220,227.000 300.137 C 227.000 300.054,227.352 299.427,227.782 298.743 C 228.472 297.647,231.987 291.593,234.407 287.333 C 234.876 286.508,236.000 284.558,236.906 283.000 C 237.812 281.442,238.937 279.492,239.406 278.667 C 239.875 277.842,241.000 275.892,241.906 274.333 C 242.812 272.775,243.938 270.825,244.410 270.000 C 244.881 269.175,246.353 266.625,247.680 264.333 C 249.007 262.042,250.432 259.567,250.846 258.833 C 251.259 258.100,252.513 255.950,253.632 254.056 C 254.751 252.162,255.667 250.547,255.667 250.466 C 255.667 250.386,256.019 249.761,256.449 249.077 C 257.138 247.980,260.653 241.927,263.074 237.667 C 263.543 236.842,264.667 234.892,265.573 233.333 C 266.478 231.775,267.603 229.825,268.073 229.000 C 268.542 228.175,269.667 226.225,270.573 224.667 C 271.478 223.108,272.604 221.158,273.075 220.333 C 273.546 219.508,275.015 216.958,276.340 214.667 C 277.665 212.375,279.090 209.900,279.507 209.167 C 279.923 208.433,281.180 206.284,282.299 204.390 C 283.418 202.495,284.333 200.880,284.333 200.800 C 284.333 200.719,284.685 200.094,285.114 199.410 C 285.808 198.305,287.421 195.527,294.063 184.000 C 295.067 182.258,296.271 180.158,296.740 179.333 C 297.209 178.508,298.334 176.558,299.239 175.000 C 300.145 173.442,301.271 171.492,301.742 170.667 C 302.212 169.842,303.682 167.292,305.007 165.000 C 306.332 162.708,307.757 160.233,308.174 159.500 C 308.590 158.767,309.847 156.617,310.965 154.723 C 312.084 152.829,313.000 151.213,313.000 151.133 C 313.000 151.053,313.351 150.427,313.781 149.743 C 314.475 148.638,316.088 145.860,322.730 134.333 C 323.733 132.592,324.938 130.492,325.407 129.667 C 325.876 128.842,327.000 126.892,327.906 125.333 C 328.812 123.775,329.936 121.825,330.404 121.000 C 330.873 120.175,332.262 117.775,333.492 115.667 C 334.721 113.558,336.148 111.083,336.662 110.167 C 337.176 109.250,338.513 106.950,339.632 105.056 C 340.751 103.162,341.667 101.565,341.667 101.507 C 341.667 101.448,342.792 99.500,344.167 97.178 C 345.542 94.855,346.667 92.887,346.667 92.804 C 346.667 92.721,347.019 92.094,347.449 91.410 C 348.138 90.313,351.653 84.260,354.074 80.000 C 354.543 79.175,355.667 77.225,356.573 75.667 C 357.478 74.108,358.603 72.158,359.071 71.333 C 359.540 70.508,360.929 68.108,362.158 66.000 C 363.388 63.892,364.814 61.417,365.329 60.500 C 365.843 59.583,367.179 57.284,368.299 55.390 C 369.418 53.495,370.333 51.898,370.333 51.840 C 370.333 51.782,371.458 49.834,372.833 47.511 C 374.208 45.188,375.333 43.220,375.333 43.137 C 375.333 43.054,375.685 42.427,376.115 41.743 C 376.814 40.633,380.466 34.341,382.739 30.333 C 383.207 29.508,384.582 27.127,385.795 25.041 C 387.008 22.956,388.000 21.202,388.000 21.144 C 388.000 21.086,388.579 20.092,389.288 18.936 C 391.948 14.591,400.000 0.498,400.000 0.186 C 400.000 0.084,382.037 0.001,360.083 0.003 L 320.167 0.005 260.167 103.995 C 227.167 161.190,200.092 207.987,200.000 207.989 C 199.908 207.990,172.833 161.196,139.833 104.001 L 79.833 0.010 39.917 0.005 C 17.962 0.002,0.000 0.094,0.000 0.209 " stroke="none" fill="#3cbb84" fill-rule="evenodd"></path><path id="path2" d="M98.417 0.250 C 108.638 0.299,125.362 0.299,135.583 0.250 C 145.804 0.201,137.442 0.161,117.000 0.161 C 96.558 0.161,88.196 0.201,98.417 0.250 M264.417 0.250 C 274.637 0.299,291.362 0.299,301.583 0.250 C 311.804 0.201,303.442 0.161,283.000 0.161 C 262.558 0.161,254.196 0.201,264.417 0.250 " stroke="none" fill="#346867" fill-rule="evenodd"></path><path id="path3" d="" stroke="none" fill="#398774" fill-rule="evenodd"></path><path id="path4" d="" stroke="none" fill="#3ca27c" fill-rule="evenodd"></path></g></svg>